C:\GBW_MyPrograms\KinderuniversiteitApp\Resultaten\Ellis_v10102025\Reus\Reus_v3.mot
version=1
nRows=18
nColumns=29
inDegrees=yes
endheader
                time	         pelvis_tilt	           pelvis_tx	           pelvis_ty	       hip_flexion_l	       hip_flexion_r	        knee_angle_l	        knee_angle_r	       ankle_angle_l	       ankle_angle_r	    lumbar_extension	hamstrings_r/activation	bifemsh_r/activation	glut_max_r/activation	iliopsoas_r/activation	rect_fem_r/activation	  vasti_r/activation	gastroc_r/activation	 soleus_r/activation	tib_ant_r/activation	hamstrings_l/activation	bifemsh_l/activation	glut_max_l/activation	iliopsoas_l/activation	rect_fem_l/activation	  vasti_l/activation	gastroc_l/activation	 soleus_l/activation	tib_ant_l/activation	
          0.00000000	         -6.31343160	          0.00000000	          0.80117205	         25.46494336	         26.79052397	        -41.47920498	        -43.05686882	         16.90018800	         11.69422079	         -0.67319099	          0.26598805	          0.41862882	          0.41470032	          0.30117493	          0.36085652	          0.48063957	          0.42726958	          0.42028093	          0.58325060	          0.28881900	          0.53558826	          0.71105035	          0.49142044	          0.50300798	          0.72136789	          0.38252432	          0.73898513	          0.44938881	
          0.00200000	         -6.34483651	          0.01500564	          0.80224730	         25.23081120	         26.53253305	        -41.25070135	        -43.24355512	         16.99133699	         11.53439111	         -0.66437857	          0.25649338	          0.40368414	          0.44915531	          0.28866592	          0.34968499	          0.46436566	          0.41127603	          0.40315360	          0.56915220	          0.28078137	          0.51561524	          0.73716218	          0.47149361	          0.48751955	          0.74860886	          0.36995048	          0.76157375	          0.43261305	
          0.00400000	         -6.36807401	          0.02868320	          0.80338989	         25.13620330	         26.26627825	        -40.94538193	        -43.44515710	         17.06708432	         11.43465161	         -0.65938472	          0.24712732	          0.38961343	          0.43568319	          0.27698636	          0.33878692	          0.44636810	          0.39660735	          0.38655618	          0.55366840	          0.29936051	          0.49699345	          0.76084982	          0.45233874	          0.47122033	          0.77257165	          0.42786521	          0.78222554	          0.41543070	
          0.00600000	         -6.38689702	          0.04110345	          0.80447068	         24.97208966	         26.06898983	        -40.74140962	        -43.60810090	         17.13146348	         11.39959038	         -0.65772844	          0.23688331	          0.37757557	          0.41918571	          0.26999155	          0.33010638	          0.42841444	          0.38329753	          0.37055047	          0.58850888	          0.29456922	          0.47908314	          0.78137305	          0.43385382	          0.45558154	          0.79380809	          0.47412656	          0.80038418	          0.39927092	
          0.00800000	         -6.40489123	          0.05232922	          0.80559288	         24.83418645	         25.73579971	        -40.65894391	        -43.91248716	         17.17240580	         11.42707882	         -0.65888218	          0.22807983	          0.37398664	          0.40285670	          0.34726058	          0.32219405	          0.41082022	          0.37617761	          0.35501822	          0.62417750	          0.36584351	          0.46173099	          0.80119964	          0.41583503	          0.43946406	          0.81257254	          0.48661627	          0.81594790	          0.38381028	
          0.01000000	         -6.41761432	          0.06240589	          0.80660555	         24.62384300	         25.51058554	        -40.66687784	        -44.04198490	         17.20444565	         11.34405374	         -0.66232866	          0.21702744	          0.43492026	          0.38630802	          0.41885327	          0.39241572	          0.39366745	          0.42486278	          0.34044326	          0.65335578	          0.42623291	          0.44487514	          0.81821929	          0.39849736	          0.42428683	          0.82913925	          0.48181588	          0.82937669	          0.36886733	
          0.01200000	         -6.42850051	          0.07137036	          0.80756078	         24.44498624	         25.14228413	        -40.76914622	        -44.30687039	         17.23246461	         11.26227516	         -0.66879757	          0.20550661	          0.49316825	          0.36993076	          0.48207587	          0.45721984	          0.37695421	          0.47016670	          0.32654896	          0.68409000	          0.44127641	          0.42858532	          0.83103614	          0.38195042	          0.41062840	          0.84367615	          0.47099298	          0.84081143	          0.35437400	
          0.01400000	         -6.42744626	          0.07924400	          0.80828479	         24.37676165	         24.96007626	        -40.94975887	        -44.30728511	         17.24731634	         11.21332477	         -0.67851658	          0.19408871	          0.54555552	          0.35379905	          0.53777573	          0.51506148	          0.36073873	          0.51867054	          0.31402510	          0.68534302	          0.45567384	          0.41293129	          0.82158751	          0.36626156	          0.39947217	          0.85639038	          0.45881225	          0.85011155	          0.34028961	
          0.01600000	         -6.43677732	          0.08605649	          0.80885710	         24.13805900	         24.52390124	        -41.13969373	        -44.61783209	         17.25520189	         11.18740766	         -0.68820309	          0.18313465	          0.59164085	          0.33820559	          0.58657607	          0.56452660	          0.34511956	          0.56409165	          0.30780566	          0.66237343	          0.51321149	          0.39792592	          0.83599877	          0.35069679	          0.38438002	          0.86750481	          0.44403776	          0.85592065	          0.32676695	
          0.01800000	         -6.44592948	          0.09183685	          0.80929644	         23.92068354	         24.15419989	        -41.16110034	        -44.74826068	         17.25109350	         11.18063852	         -0.69458625	          0.17483365	          0.63004407	          0.32369955	          0.62799410	          0.60305617	          0.32990667	          0.59717775	          0.29943840	          0.64173729	          0.56474874	          0.38326753	          0.85015507	          0.33522694	          0.36833550	          0.87724168	          0.42813045	          0.84276399	          0.31404602	
          0.02000000	         -6.45912438	          0.09659489	          0.80966532	         23.61816354	         23.81752914	        -41.32953041	        -44.82004677	         17.23978460	         11.22269330	         -0.69706437	          0.16553848	          0.65482477	          0.30964230	          0.66413912	          0.64059113	          0.31530571	          0.60871581	          0.29380698	          0.62099699	          0.60994266	          0.36936601	          0.86255189	          0.32033607	          0.35327179	          0.88547588	          0.41281770	          0.81513656	          0.30212822	
          0.02200000	         -6.47508895	          0.10034238	          0.80992164	         23.43880201	         23.27759902	        -41.26083958	        -45.08521571	         17.23176510	         11.32286477	         -0.69800148	          0.15633654	          0.63304803	          0.29627469	          0.69463347	          0.67454189	          0.30160948	          0.59420761	          0.29023424	          0.59995075	          0.64916372	          0.35615805	          0.87326006	          0.30607194	          0.33902857	          0.89214608	          0.39738900	          0.78645149	          0.29080164	
          0.02400000	         -6.48389259	          0.10308607	          0.81015533	         23.34315568	         22.97857302	        -41.10622821	        -45.11767383	         17.20903729	         11.45315754	         -0.69756314	          0.14717571	          0.61081423	          0.28327062	          0.72102488	          0.70528778	          0.28959080	          0.57565059	          0.28196918	          0.57598251	          0.68249511	          0.34391074	          0.88212363	          0.29240630	          0.32562233	          0.89663702	          0.38221106	          0.75780931	          0.28123729	
          0.02600000	         -6.49095491	          0.10484152	          0.81036271	         23.30202240	         22.72048678	        -40.87537266	        -45.12086626	         17.17529699	         11.51687241	         -0.69596507	          0.13764921	          0.58877186	          0.27037965	          0.74509431	          0.73298045	          0.32281181	          0.55732758	          0.27323054	          0.55469988	          0.70719150	          0.33261768	          0.88813324	          0.27971697	          0.31386012	          0.89453545	          0.36740071	          0.72973351	          0.27315090	
          0.02800000	         -6.50126304	          0.10560373	          0.81014855	         23.19917974	         22.37680417	        -40.64047977	        -45.11905457	         17.12863646	         11.59075296	         -0.69371366	          0.12826231	          0.56710980	          0.25793936	          0.76654919	          0.75738117	          0.39618321	          0.53949826	          0.26445118	          0.53414931	          0.69131253	          0.32331489	          0.86194837	          0.26970557	          0.30930112	          0.86609762	          0.35289070	          0.70223377	          0.26762496	
          0.03000000	         -6.50318539	          0.10538601	          0.80976918	         23.04484646	         22.38702393	        -40.60909115	        -45.16881960	         17.07840683	         11.66582451	         -0.69329620	          0.11924033	          0.54655245	          0.24593621	          0.78080283	          0.77786235	          0.45295102	          0.52199018	          0.25495947	          0.51445025	          0.70035536	          0.31713734	          0.83812687	          0.26039454	          0.29994675	          0.83684891	          0.33860728	          0.67536553	          0.32999931	
          0.03200000	         -6.48861805	          0.10417133	          0.80795926	         22.91605806	         22.85424057	        -40.60194443	        -44.67136820	         17.01635757	         11.79903004	         -0.69396875	          0.11065226	          0.52697429	          0.23425604	          0.76452803	          0.79318110	          0.43381390	          0.50425262	          0.24456932	          0.49308437	          0.71416323	          0.31675100	          0.81483137	          0.25070947	          0.28994658	          0.80773699	          0.32460744	          0.64918805	          0.39687871	
          0.03400000	         -6.48225391	          0.10195419	          0.80732956	         22.81523326	         23.11828840	        -40.62205232	        -44.59427696	         16.94457492	         11.94993203	         -0.69520658	          0.10251479	          0.50866290	          0.22308576	          0.74207483	          0.77548450	          0.41582478	          0.48819654	          0.23281307	          0.53959807	          0.70100765	          0.37293217	          0.78946616	          0.24075502	          0.28135435	          0.77896341	          0.31092258	          0.62372615	          0.45882015	
